<?xml version="1.0" encoding="UTF-8"?>
<svg width="64px" height="64px" viewBox="0 0 64 64" version="1.1" xmlns="http://www.w3.org/2000/svg" xmlns:xlink="http://www.w3.org/1999/xlink">
    <title>search</title>
    <g id="Page-1" stroke="none" stroke-width="1" fill="none" fill-rule="evenodd">
        <g id="375---1" transform="translate(-155.000000, -256.000000)" fill="#D0DAE1" fill-rule="nonzero">
            <path d="M200.740423,296.251572 L197.849628,296.251572 L196.825043,295.263579 C200.411092,291.092053 202.57004,285.676387 202.57004,279.78502 C202.57004,266.64837 191.92167,256 178.78502,256 C165.64837,256 155,266.64837 155,279.78502 C155,292.92167 165.64837,303.57004 178.78502,303.57004 C184.676387,303.57004 190.092053,301.411092 194.263579,297.825043 L195.251572,298.849628 L195.251572,301.740423 L213.547742,320 L219,314.547742 L200.740423,296.251572 Z M178.78502,296.251572 C169.673528,296.251572 162.318468,288.896512 162.318468,279.78502 C162.318468,270.673528 169.673528,263.318468 178.78502,263.318468 C187.896512,263.318468 195.251572,270.673528 195.251572,279.78502 C195.251572,288.896512 187.896512,296.251572 178.78502,296.251572 Z" id="search"></path>
        </g>
    </g>
</svg>