<?xml version="1.0" encoding="UTF-8"?>
<svg width="42px" height="64px" viewBox="0 0 42 64" version="1.1" xmlns="http://www.w3.org/2000/svg" xmlns:xlink="http://www.w3.org/1999/xlink">
    <title>zero</title>
    <g id="Page-1" stroke="none" stroke-width="1" fill="none" fill-rule="evenodd">
        <g id="375---3" transform="translate(-166.000000, -333.000000)" fill="#D0DAE1" fill-rule="nonzero">
            <path d="M187,397 C194.084592,397 199.364552,394.37763 203,389 C206.27291,383.888151 208,375.865116 208,365 C208,354.574308 206.223565,346.607973 203,341 C199.117825,335.721595 193.88721,333 187,333 C179.901309,333 174.635448,335.601107 171,341 C167.72709,346.005537 166,354.092359 166,365 C166,375.524917 167.776435,383.462901 171,389 C174.882175,394.29258 180.098691,397 187,397 Z M187,388 C183.135135,388 180.353282,386.196643 179,383 C176.870656,378.983213 176,372.967326 176,365 C176,356.117206 176.870656,350.08723 179,346 C180.353282,342.817446 183.135135,341 187,341 C190.779923,341 193.575933,342.852668 195,347 C197.115187,350.263339 198,356.258094 198,365 C198,372.854616 197.115187,378.842326 195,383 C193.575933,386.168465 190.779923,388 187,388 Z" id="zero"></path>
        </g>
    </g>
</svg>